<svg width="206" height="21" viewBox="0 0 206 21" fill="none" xmlns="http://www.w3.org/2000/svg">
<path d="M16.3795 20H12.7395L4.49748 7.546V20H0.857477V1.826H4.49748L12.7395 14.306V1.826H16.3795V20ZM26.3726 20.234C24.986 20.234 23.738 19.9307 22.6286 19.324C21.5193 18.7 20.644 17.8247 20.0026 16.698C19.3786 15.5713 19.0666 14.2713 19.0666 12.798C19.0666 11.3247 19.3873 10.0247 20.0286 8.898C20.6873 7.77133 21.58 6.90467 22.7066 6.298C23.8333 5.674 25.09 5.362 26.4766 5.362C27.8633 5.362 29.12 5.674 30.2466 6.298C31.3733 6.90467 32.2573 7.77133 32.8986 8.898C33.5573 10.0247 33.8866 11.3247 33.8866 12.798C33.8866 14.2713 33.5486 15.5713 32.8726 16.698C32.214 17.8247 31.3126 18.7 30.1686 19.324C29.042 19.9307 27.7766 20.234 26.3726 20.234ZM26.3726 17.062C27.0313 17.062 27.6466 16.906 28.2186 16.594C28.808 16.2647 29.276 15.7793 29.6226 15.138C29.9693 14.4967 30.1426 13.7167 30.1426 12.798C30.1426 11.4287 29.7786 10.38 29.0506 9.652C28.34 8.90667 27.4646 8.534 26.4246 8.534C25.3846 8.534 24.5093 8.90667 23.7986 9.652C23.1053 10.38 22.7586 11.4287 22.7586 12.798C22.7586 14.1673 23.0966 15.2247 23.7726 15.97C24.466 16.698 25.3326 17.062 26.3726 17.062ZM54.4447 5.388C56.2127 5.388 57.634 5.934 58.7087 7.026C59.8007 8.10067 60.3467 9.60867 60.3467 11.55V20H56.7067V12.044C56.7067 10.9173 56.4207 10.0593 55.8487 9.47C55.2767 8.86333 54.4967 8.56 53.5087 8.56C52.5207 8.56 51.732 8.86333 51.1427 9.47C50.5707 10.0593 50.2847 10.9173 50.2847 12.044V20H46.6447V12.044C46.6447 10.9173 46.3587 10.0593 45.7867 9.47C45.2147 8.86333 44.4347 8.56 43.4467 8.56C42.4414 8.56 41.644 8.86333 41.0547 9.47C40.4827 10.0593 40.1967 10.9173 40.1967 12.044V20H36.5567V5.596H40.1967V7.338C40.6647 6.73133 41.2627 6.25467 41.9907 5.908C42.736 5.56133 43.5507 5.388 44.4347 5.388C45.5614 5.388 46.5667 5.63067 47.4507 6.116C48.3347 6.584 49.0194 7.26 49.5047 8.144C49.9727 7.312 50.6487 6.64467 51.5327 6.142C52.434 5.63933 53.4047 5.388 54.4447 5.388ZM62.8648 12.746C62.8648 11.29 63.1508 9.99867 63.7228 8.872C64.3122 7.74533 65.1008 6.87867 66.0888 6.272C67.0942 5.66533 68.2122 5.362 69.4428 5.362C70.5175 5.362 71.4535 5.57867 72.2508 6.012C73.0655 6.44533 73.7155 6.99133 74.2008 7.65V5.596H77.8668V20H74.2008V17.894C73.7328 18.57 73.0828 19.1333 72.2508 19.584C71.4362 20.0173 70.4915 20.234 69.4168 20.234C68.2035 20.234 67.0942 19.922 66.0888 19.298C65.1008 18.674 64.3122 17.7987 63.7228 16.672C63.1508 15.528 62.8648 14.2193 62.8648 12.746ZM74.2008 12.798C74.2008 11.914 74.0275 11.16 73.6808 10.536C73.3342 9.89467 72.8662 9.40933 72.2768 9.08C71.6875 8.73333 71.0548 8.56 70.3788 8.56C69.7028 8.56 69.0788 8.72467 68.5068 9.054C67.9348 9.38333 67.4668 9.86867 67.1028 10.51C66.7562 11.134 66.5828 11.8793 66.5828 12.746C66.5828 13.6127 66.7562 14.3753 67.1028 15.034C67.4668 15.6753 67.9348 16.1693 68.5068 16.516C69.0962 16.8627 69.7202 17.036 70.3788 17.036C71.0548 17.036 71.6875 16.8713 72.2768 16.542C72.8662 16.1953 73.3342 15.71 73.6808 15.086C74.0275 14.4447 74.2008 13.682 74.2008 12.798ZM80.4859 12.746C80.4859 11.29 80.7719 9.99867 81.3439 8.872C81.9333 7.74533 82.7306 6.87867 83.7359 6.272C84.7413 5.66533 85.8593 5.362 87.0899 5.362C88.0259 5.362 88.9186 5.57 89.7679 5.986C90.6173 6.38467 91.2933 6.922 91.7959 7.598V0.76H95.4879V20H91.7959V17.868C91.3453 18.5787 90.7126 19.1507 89.8979 19.584C89.0833 20.0173 88.1386 20.234 87.0639 20.234C85.8506 20.234 84.7413 19.922 83.7359 19.298C82.7306 18.674 81.9333 17.7987 81.3439 16.672C80.7719 15.528 80.4859 14.2193 80.4859 12.746ZM91.8219 12.798C91.8219 11.914 91.6486 11.16 91.3019 10.536C90.9553 9.89467 90.4873 9.40933 89.8979 9.08C89.3086 8.73333 88.6759 8.56 87.9999 8.56C87.3239 8.56 86.6999 8.72467 86.1279 9.054C85.5559 9.38333 85.0879 9.86867 84.7239 10.51C84.3773 11.134 84.2039 11.8793 84.2039 12.746C84.2039 13.6127 84.3773 14.3753 84.7239 15.034C85.0879 15.6753 85.5559 16.1693 86.1279 16.516C86.7173 16.8627 87.3413 17.036 87.9999 17.036C88.6759 17.036 89.3086 16.8713 89.8979 16.542C90.4873 16.1953 90.9553 15.71 91.3019 15.086C91.6486 14.4447 91.8219 13.682 91.8219 12.798ZM117.588 1.852V4.79H112.752V20H109.112V4.79H104.276V1.852H117.588ZM119.308 12.746C119.308 11.29 119.594 9.99867 120.166 8.872C120.756 7.74533 121.544 6.87867 122.532 6.272C123.538 5.66533 124.656 5.362 125.886 5.362C126.961 5.362 127.897 5.57867 128.694 6.012C129.509 6.44533 130.159 6.99133 130.644 7.65V5.596H134.31V20H130.644V17.894C130.176 18.57 129.526 19.1333 128.694 19.584C127.88 20.0173 126.935 20.234 125.86 20.234C124.647 20.234 123.538 19.922 122.532 19.298C121.544 18.674 120.756 17.7987 120.166 16.672C119.594 15.528 119.308 14.2193 119.308 12.746ZM130.644 12.798C130.644 11.914 130.471 11.16 130.124 10.536C129.778 9.89467 129.31 9.40933 128.72 9.08C128.131 8.73333 127.498 8.56 126.822 8.56C126.146 8.56 125.522 8.72467 124.95 9.054C124.378 9.38333 123.91 9.86867 123.546 10.51C123.2 11.134 123.026 11.8793 123.026 12.746C123.026 13.6127 123.2 14.3753 123.546 15.034C123.91 15.6753 124.378 16.1693 124.95 16.516C125.54 16.8627 126.164 17.036 126.822 17.036C127.498 17.036 128.131 16.8713 128.72 16.542C129.31 16.1953 129.778 15.71 130.124 15.086C130.471 14.4447 130.644 13.682 130.644 12.798ZM145.821 20L142.857 15.528L140.231 20H136.331L141.037 12.772L136.279 5.596H140.387L143.325 10.042L145.977 5.596H149.877L145.145 12.772L149.929 20H145.821ZM169.74 7.182C169.74 8.69 169.22 9.94667 168.18 10.952C167.157 11.94 165.589 12.434 163.474 12.434H159.99V20H157.624V1.878H163.474C165.519 1.878 167.071 2.372 168.128 3.36C169.203 4.348 169.74 5.622 169.74 7.182ZM163.474 10.484C164.791 10.484 165.762 10.198 166.386 9.626C167.01 9.054 167.322 8.23933 167.322 7.182C167.322 4.946 166.039 3.828 163.474 3.828H159.99V10.484H163.474ZM182.223 20L177.907 12.59H175.047V20H172.681V1.878H178.531C179.9 1.878 181.053 2.112 181.989 2.58C182.942 3.048 183.653 3.68067 184.121 4.478C184.589 5.27533 184.823 6.18533 184.823 7.208C184.823 8.456 184.459 9.55667 183.731 10.51C183.02 11.4633 181.945 12.096 180.507 12.408L185.057 20H182.223ZM175.047 10.692H178.531C179.813 10.692 180.775 10.38 181.417 9.756C182.058 9.11467 182.379 8.26533 182.379 7.208C182.379 6.13333 182.058 5.30133 181.417 4.712C180.793 4.12267 179.831 3.828 178.531 3.828H175.047V10.692ZM196.715 20.182C195.034 20.182 193.5 19.792 192.113 19.012C190.726 18.2147 189.626 17.114 188.811 15.71C188.014 14.2887 187.615 12.694 187.615 10.926C187.615 9.158 188.014 7.572 188.811 6.168C189.626 4.74667 190.726 3.646 192.113 2.866C193.5 2.06867 195.034 1.67 196.715 1.67C198.414 1.67 199.956 2.06867 201.343 2.866C202.73 3.646 203.822 4.738 204.619 6.142C205.416 7.546 205.815 9.14067 205.815 10.926C205.815 12.7113 205.416 14.306 204.619 15.71C203.822 17.114 202.73 18.2147 201.343 19.012C199.956 19.792 198.414 20.182 196.715 20.182ZM196.715 18.128C197.98 18.128 199.116 17.8333 200.121 17.244C201.144 16.6547 201.941 15.814 202.513 14.722C203.102 13.63 203.397 12.3647 203.397 10.926C203.397 9.47 203.102 8.20467 202.513 7.13C201.941 6.038 201.152 5.19733 200.147 4.608C199.142 4.01867 197.998 3.724 196.715 3.724C195.432 3.724 194.288 4.01867 193.283 4.608C192.278 5.19733 191.48 6.038 190.891 7.13C190.319 8.20467 190.033 9.47 190.033 10.926C190.033 12.3647 190.319 13.63 190.891 14.722C191.48 15.814 192.278 16.6547 193.283 17.244C194.306 17.8333 195.45 18.128 196.715 18.128Z" fill="#2B3674"/>
</svg>
