<svg width="32" height="32" viewBox="0 0 32 32" fill="none" xmlns="http://www.w3.org/2000/svg">
<path d="M1.7395 18.0647C2.23816 21.491 3.95374 24.6232 6.57238 26.8883C9.19102 29.1534 12.5376 30.4 16 30.4C19.4624 30.4 22.809 29.1534 25.4276 26.8883C28.0463 24.6232 29.7619 21.491 30.2605 18.0647M16.0021 1.59998C14.3645 1.59998 12.7941 2.25048 11.6362 3.40838C10.4783 4.56628 9.8278 6.13673 9.8278 7.77425V16.0066C9.8278 17.6441 10.4783 19.2146 11.6362 20.3725C12.7941 21.5304 14.3645 22.1809 16.0021 22.1809C17.6396 22.1809 19.21 21.5304 20.3679 20.3725C21.5258 19.2146 22.1763 17.6441 22.1763 16.0066V7.77425C22.1763 6.13673 21.5258 4.56628 20.3679 3.40838C19.21 2.25048 17.6396 1.59998 16.0021 1.59998Z" stroke="#4318FF" stroke-width="2" stroke-linecap="round" stroke-linejoin="round"/>
</svg>
