<svg width="32" height="36" viewBox="0 0 32 36" fill="none" xmlns="http://www.w3.org/2000/svg">
<path d="M9.32845 30.7591C8.80451 30.9337 8.52135 31.5 8.69599 32.024C8.87064 32.5479 9.43696 32.8311 9.96091 32.6564L9.32845 30.7591ZM18.9908 32.3308L18.9001 31.3349L18.9908 32.3308ZM24.5985 31.0847L25.0371 31.9834L24.5985 31.0847ZM29.9568 26.2103L29.1797 25.5809L29.9568 26.2103ZM26.292 23.1604L26.9991 23.8675L26.292 23.1604ZM23.8243 25.6282L24.5314 26.3353L23.8243 25.6282ZM17.1216 25.7231C16.5693 25.7231 16.1216 26.1708 16.1216 26.7231C16.1216 27.2754 16.5693 27.7231 17.1216 27.7231V25.7231ZM29.387 22.8539L28.8323 23.686L29.387 22.8539ZM11.5413 22.0364L11.9885 22.9308L11.5413 22.0364ZM18.2486 21.4228L18.5117 20.458L18.2486 21.4228ZM20.8679 22.1372L20.6048 23.1019L20.8679 22.1372ZM21.6978 25.2623L20.9907 24.5552L21.6978 25.2623ZM19.5299 26.016C19.1394 26.4065 19.1394 27.0397 19.5299 27.4302C19.9204 27.8208 20.5536 27.8208 20.9441 27.4302L19.5299 26.016ZM9.96091 32.6564C10.2334 32.5656 10.6925 32.5303 11.3844 32.5796C12.0558 32.6275 12.8324 32.7444 13.6953 32.8799C15.3623 33.1418 17.3724 33.4824 19.0816 33.3267L18.9001 31.3349C17.4939 31.463 15.7655 31.1806 14.0056 30.9042C13.1551 30.7706 12.296 30.6396 11.5266 30.5847C10.7777 30.5313 9.99054 30.5384 9.32845 30.7591L9.96091 32.6564ZM19.0816 33.3267C20.2574 33.2196 21.191 33.1733 22.0632 33.0154C22.986 32.8484 23.858 32.5587 25.0371 31.9834L24.16 30.186C23.1089 30.6989 22.4127 30.9197 21.707 31.0474C20.9506 31.1843 20.1955 31.2169 18.9001 31.3349L19.0816 33.3267ZM25.0371 31.9834C26.1441 31.4431 27.2337 30.5594 28.1922 29.6385C29.1603 28.7083 30.0432 27.6925 30.7339 26.8397L29.1797 25.5809C28.5202 26.3952 27.6946 27.343 26.8065 28.1963C25.9087 29.0589 24.9942 29.7789 24.16 30.186L25.0371 31.9834ZM25.5849 22.4533L23.1172 24.921L24.5314 26.3353L26.9991 23.8675L25.5849 22.4533ZM21.1808 25.7231H17.1216V27.7231H21.1808V25.7231ZM23.1172 24.921C22.6036 25.4346 21.9071 25.7231 21.1808 25.7231V27.7231C22.4375 27.7231 23.6427 27.2239 24.5314 26.3353L23.1172 24.921ZM29.9417 22.0219C28.5723 21.1089 26.7487 21.2895 25.5849 22.4533L26.9991 23.8675C27.4888 23.3778 28.2561 23.3018 28.8323 23.686L29.9417 22.0219ZM30.7339 26.8397C31.9932 25.2848 31.5293 23.0802 29.9417 22.0219L28.8323 23.686C29.5181 24.1431 29.6399 25.0127 29.1797 25.5809L30.7339 26.8397ZM2.79083 21.4924H7.77545V19.4924H2.79083V21.4924ZM8.0216 21.7385V32.9539H10.0216V21.7385H8.0216ZM7.77545 33.2H2.79083V35.2H7.77545V33.2ZM2.54468 32.9539V21.7385H0.544678V32.9539H2.54468ZM2.79083 33.2C2.65488 33.2 2.54468 33.0898 2.54468 32.9539H0.544678C0.544678 34.1944 1.55032 35.2 2.79083 35.2V33.2ZM8.0216 32.9539C8.0216 33.0898 7.9114 33.2 7.77545 33.2V35.2C9.01596 35.2 10.0216 34.1944 10.0216 32.9539H8.0216ZM7.77545 21.4924C7.91139 21.4924 8.0216 21.6026 8.0216 21.7385H10.0216C10.0216 20.498 9.01596 19.4924 7.77545 19.4924V21.4924ZM2.79083 19.4924C1.55032 19.4924 0.544678 20.498 0.544678 21.7385H2.54468C2.54468 21.6026 2.65488 21.4924 2.79083 21.4924V19.4924ZM10.0919 23.8791L11.9885 22.9308L11.0941 21.1419L9.19746 22.0902L10.0919 23.8791ZM15.4424 22.1154H15.9534V20.1154H15.4424V22.1154ZM17.9855 22.3876L20.6048 23.1019L21.131 21.1724L18.5117 20.458L17.9855 22.3876ZM20.9907 24.5552L19.5299 26.016L20.9441 27.4302L22.4049 25.9694L20.9907 24.5552ZM20.6048 23.1019C21.2487 23.2775 21.4627 24.0832 20.9907 24.5552L22.4049 25.9694C23.9627 24.4116 23.2565 21.7521 21.131 21.1724L20.6048 23.1019ZM15.9534 22.1154C16.6399 22.1154 17.3232 22.2069 17.9855 22.3876L18.5117 20.458C17.678 20.2306 16.8176 20.1154 15.9534 20.1154V22.1154ZM11.9885 22.9308C13.0609 22.3946 14.2434 22.1154 15.4424 22.1154V20.1154C13.9329 20.1154 12.4442 20.4669 11.0941 21.1419L11.9885 22.9308ZM24.2216 11.7693C24.2216 13.9699 22.4376 15.7539 20.237 15.7539V17.7539C23.5422 17.7539 26.2216 15.0745 26.2216 11.7693H24.2216ZM20.237 15.7539C18.0363 15.7539 16.2524 13.9699 16.2524 11.7693H14.2524C14.2524 15.0745 16.9318 17.7539 20.237 17.7539V15.7539ZM16.2524 11.7693C16.2524 9.56864 18.0363 7.78466 20.237 7.78466V5.78466C16.9318 5.78466 14.2524 8.46407 14.2524 11.7693H16.2524ZM20.237 7.78466C22.4376 7.78466 24.2216 9.56864 24.2216 11.7693H26.2216C26.2216 8.46407 23.5422 5.78466 20.237 5.78466V7.78466ZM15.2524 10.7693C13.0517 10.7693 11.2678 8.98531 11.2678 6.78466H9.26776C9.26776 10.0899 11.9472 12.7693 15.2524 12.7693V10.7693ZM11.2678 6.78466C11.2678 4.58402 13.0517 2.80005 15.2524 2.80005V0.800049C11.9472 0.800049 9.26776 3.47945 9.26776 6.78466H11.2678ZM15.2524 2.80005C17.453 2.80005 19.237 4.58402 19.237 6.78466H21.237C21.237 3.47945 18.5576 0.800049 15.2524 0.800049V2.80005Z" fill="#4318FF"/>
</svg>
