<svg width="15" height="14" viewBox="0 0 15 14" fill="none" xmlns="http://www.w3.org/2000/svg">
<path d="M13.7617 1.26543C13.3999 0.903473 12.9704 0.616344 12.4976 0.420446C12.0248 0.224548 11.5181 0.123718 11.0063 0.123718C10.4945 0.123718 9.98778 0.224548 9.515 0.420446C9.04222 0.616344 8.61266 0.903473 8.25088 1.26543L7.50004 2.01626L6.74921 1.26543C6.01843 0.534646 5.02728 0.124097 3.99379 0.124097C2.96031 0.124097 1.96916 0.534646 1.23838 1.26543C0.507595 1.99621 0.0970459 2.98736 0.0970459 4.02084C0.0970459 5.05433 0.507595 6.04548 1.23838 6.77626L1.98921 7.52709L7.50004 13.0379L13.0109 7.52709L13.7617 6.77626C14.1237 6.41448 14.4108 5.98492 14.6067 5.51214C14.8026 5.03935 14.9034 4.53261 14.9034 4.02084C14.9034 3.50908 14.8026 3.00233 14.6067 2.52955C14.4108 2.05677 14.1237 1.62721 13.7617 1.26543Z" fill="#FF1414"/>
</svg>
