<svg width="16" height="15" viewBox="0 0 16 15" fill="none" xmlns="http://www.w3.org/2000/svg">
<path d="M14.1259 0.842063C12.0147 -0.68795 9.40768 0.0260563 8.00022 1.77707C6.59276 0.0260563 3.98576 -0.69645 1.87457 0.842063C0.755005 1.65807 0.0512759 3.03508 0.00329431 4.48859C-0.108663 7.78662 2.64228 10.4301 6.84067 14.4847L6.92063 14.5612C7.5284 15.1477 8.46404 15.1477 9.07181 14.5527L9.15977 14.4677C13.3582 10.4216 16.1011 7.77812 15.9971 4.48009C15.9492 3.03508 15.2454 1.65807 14.1259 0.842063ZM8.08019 13.2182L8.00022 13.3032L7.92025 13.2182C4.11371 9.55464 1.60268 7.13212 1.60268 4.6756C1.60268 2.97558 2.80222 1.70057 4.4016 1.70057C5.63313 1.70057 6.83267 2.54208 7.25651 3.70659H8.75193C9.16777 2.54208 10.3673 1.70057 11.5988 1.70057C13.1982 1.70057 14.3978 2.97558 14.3978 4.6756C14.3978 7.13212 11.8867 9.55464 8.08019 13.2182Z" fill="#4318FF"/>
</svg>
