<svg width="32" height="32" viewBox="0 0 32 32" fill="none" xmlns="http://www.w3.org/2000/svg">
<path d="M10.7004 17.3236L10.054 16.5607L10.054 16.5607L10.7004 17.3236ZM10.7797 17.2478L10.0672 16.5461L10.0664 16.5469L10.7797 17.2478ZM7.44708 20.0802L6.80063 19.3173L6.80062 19.3173L7.44708 20.0802ZM7.26887 20.2679L8.08968 20.8391L8.08968 20.8391L7.26887 20.2679ZM24.5389 17.4388L23.8464 18.1602L24.5389 17.4388ZM21.7622 14.7732L21.0697 15.4946L21.0697 15.4946L21.7622 14.7732ZM20.7311 14.766L20.0488 14.0349L20.0462 14.0373L20.7311 14.766ZM15.588 19.5997L16.2703 20.3308L16.2729 20.3284L15.588 19.5997ZM14.541 19.5768L13.825 20.275L13.8265 20.2764L14.541 19.5768ZM14.5275 19.563L13.8108 20.2604L13.8115 20.2611L14.5275 19.563ZM14.454 19.4916L15.1087 18.7358L15.1087 18.7358L14.454 19.4916ZM11.9485 17.3215L12.6032 16.5656L12.6032 16.5656L11.9485 17.3215ZM11.8747 17.2498L12.5916 16.5526L12.5909 16.5519L11.8747 17.2498ZM11.8615 17.2363L12.5777 16.5384L12.5764 16.537L11.8615 17.2363ZM10.7939 17.2333L10.0828 16.5302L10.0814 16.5316L10.7939 17.2333ZM22.4794 7.89968V6.89968C21.9271 6.89968 21.4794 7.34739 21.4794 7.89968H22.4794ZM22.9942 7.89968H23.9942C23.9942 7.34739 23.5465 6.89968 22.9942 6.89968V7.89968ZM22.9942 8.33561V9.33561C23.5465 9.33561 23.9942 8.8879 23.9942 8.33561H22.9942ZM22.4794 8.33561H21.4794C21.4794 8.8879 21.9271 9.33561 22.4794 9.33561V8.33561ZM0.600098 6.99998V25H2.6001V6.99998H0.600098ZM7.0001 31.4H25.0001V29.4H7.0001V31.4ZM31.4001 25V6.99998H29.4001V25H31.4001ZM25.0001 0.599976H7.0001V2.59998H25.0001V0.599976ZM31.4001 6.99998C31.4001 3.46535 28.5347 0.599976 25.0001 0.599976V2.59998C27.4302 2.59998 29.4001 4.56992 29.4001 6.99998H31.4001ZM25.0001 31.4C28.5347 31.4 31.4001 28.5346 31.4001 25H29.4001C29.4001 27.43 27.4302 29.4 25.0001 29.4V31.4ZM0.600098 25C0.600098 28.5346 3.46548 31.4 7.0001 31.4V29.4C4.57004 29.4 2.6001 27.43 2.6001 25H0.600098ZM2.6001 6.99998C2.6001 4.56992 4.57005 2.59998 7.0001 2.59998V0.599976C3.46548 0.599976 0.600098 3.46535 0.600098 6.99998H2.6001ZM11.3469 18.0866C11.4154 18.0285 11.4727 17.9693 11.4929 17.9487L10.0664 16.5469C10.0596 16.5537 10.0552 16.5582 10.0511 16.5624C10.0472 16.5663 10.045 16.5685 10.0438 16.5697C10.0411 16.5723 10.0452 16.5681 10.054 16.5607L11.3469 18.0866ZM8.09353 20.8432L11.3469 18.0866L10.054 16.5607L6.80063 19.3173L8.09353 20.8432ZM8.08968 20.8391C8.08355 20.8479 8.07838 20.8544 8.07486 20.8586C8.07309 20.8607 8.07171 20.8623 8.07078 20.8633C8.07032 20.8638 8.06996 20.8642 8.06973 20.8644C8.06949 20.8647 8.06937 20.8648 8.06937 20.8648C8.06936 20.8648 8.06948 20.8647 8.06972 20.8644C8.06997 20.8642 8.07033 20.8638 8.07082 20.8634C8.07182 20.8624 8.07328 20.861 8.07529 20.8592C8.0794 20.8554 8.08527 20.8502 8.09354 20.8432L6.80062 19.3173C6.70584 19.3976 6.56894 19.5229 6.44806 19.6967L8.08968 20.8391ZM8.0001 21.1246C8.0001 21.0222 8.03156 20.9226 8.08968 20.8391L6.44806 19.6966C6.15741 20.1143 6.0001 20.6124 6.0001 21.1246H8.0001ZM8.0001 24.25V21.1246H6.0001V24.25H8.0001ZM7.7501 24C7.88817 24 8.0001 24.1119 8.0001 24.25H6.0001C6.0001 25.2165 6.7836 26 7.7501 26V24ZM24.2501 24H7.7501V26H24.2501V24ZM24.0001 24.25C24.0001 24.1119 24.112 24 24.2501 24V26C25.2166 26 26.0001 25.2165 26.0001 24.25H24.0001ZM24.0001 18.5209V24.25H26.0001V18.5209H24.0001ZM23.8464 18.1602C23.9446 18.2545 24.0001 18.3847 24.0001 18.5209H26.0001C26.0001 17.8402 25.7225 17.1889 25.2314 16.7174L23.8464 18.1602ZM21.0697 15.4946L23.8464 18.1602L25.2314 16.7174L22.4548 14.0518L21.0697 15.4946ZM21.4134 15.497C21.3164 15.5876 21.1655 15.5865 21.0697 15.4946L22.4548 14.0518C21.7845 13.4083 20.7281 13.4009 20.0488 14.0349L21.4134 15.497ZM16.2729 20.3284L21.4159 15.4946L20.0462 14.0373L14.9031 18.871L16.2729 20.3284ZM13.8265 20.2764C14.485 20.949 15.5701 20.9843 16.2703 20.3308L14.9057 18.8687C15.0061 18.775 15.1607 18.7804 15.2555 18.8772L13.8265 20.2764ZM13.8115 20.2611L13.825 20.275L15.257 18.8787L15.2435 18.8649L13.8115 20.2611ZM13.7993 20.2475C13.7911 20.2404 13.7873 20.2365 13.7898 20.239C13.791 20.2401 13.793 20.2422 13.7967 20.2459C13.8005 20.2498 13.8046 20.254 13.8108 20.2604L15.2441 18.8656C15.2254 18.8462 15.1721 18.7907 15.1087 18.7358L13.7993 20.2475ZM11.2938 18.0774L13.7993 20.2475L15.1087 18.7358L12.6032 16.5656L11.2938 18.0774ZM11.1578 17.947C11.1767 17.9664 11.2302 18.0222 11.2938 18.0774L12.6032 16.5656C12.6114 16.5727 12.6152 16.5766 12.6127 16.5741C12.6116 16.573 12.6095 16.5709 12.6059 16.5672C12.602 16.5633 12.5979 16.5591 12.5916 16.5526L11.1578 17.947ZM11.1453 17.9341L11.1585 17.9477L12.5909 16.5519L12.5777 16.5384L11.1453 17.9341ZM11.5049 17.9365C11.4055 18.0371 11.2457 18.0368 11.1467 17.9355L12.5764 16.537C11.8935 15.8388 10.7686 15.8366 10.0828 16.5302L11.5049 17.9365ZM11.4921 17.9495L11.5064 17.935L10.0814 16.5316L10.0672 16.5461L11.4921 17.9495ZM22.4794 8.89968H22.9942V6.89968H22.4794V8.89968ZM21.9942 7.89968V8.33561H23.9942V7.89968H21.9942ZM22.9942 7.33561H22.4794V9.33561H22.9942V7.33561ZM23.4794 8.33561V7.89968H21.4794V8.33561H23.4794Z" fill="#4318FF"/>
</svg>
