<svg width="32" height="28" viewBox="0 0 32 28" fill="none" xmlns="http://www.w3.org/2000/svg">
<path d="M22.0382 26.8561L22.0387 22.0355C22.0389 19.3727 19.8803 17.214 17.2176 17.214H6.42172C3.75932 17.214 1.60094 19.3721 1.60064 22.0345L1.6001 26.8561M30.3997 26.8564L30.4001 22.0357C30.4003 19.373 28.2418 17.2142 25.579 17.2142M21.1096 2.09079C22.2935 2.96924 23.0608 4.37753 23.0608 5.96502C23.0608 7.55251 22.2935 8.9608 21.1096 9.83926M16.7408 5.96476C16.7408 8.62737 14.5823 10.7858 11.9197 10.7858C9.2571 10.7858 7.09863 8.62737 7.09863 5.96476C7.09863 3.30215 9.2571 1.14368 11.9197 1.14368C14.5823 1.14368 16.7408 3.30215 16.7408 5.96476Z" stroke="#4318FF" stroke-width="2" stroke-linecap="round" stroke-linejoin="round"/>
</svg>
